Coordinates
version=1
nRows=32
nColumns=12
inDegrees=yes

Units are S.I. units (second, meters, Newtons, ...)
Angles are in degrees

endheader
time	SC_y	SC_z	SC_x	AC_y	AC_z	AC_x	GH_y	GH_z	GH_yy	EL_x	PS_y
       0.0              -53.53          21.15          79.66          54.75           3.61          6.677          7.949          38.39          -46.2          76.69          151.8
   0.01408              -53.53          21.14          79.66          54.75          3.609          6.678          7.937          38.39         -46.21           76.7          151.8
   0.02816              -53.53          21.14          79.66          54.75          3.607          6.679          7.924          38.38         -46.22           76.7          151.8
   0.04223              -53.52          21.14          79.65          54.74          3.606           6.68           7.91          38.38         -46.23           76.7          151.7
   0.05631              -53.52          21.14          79.65          54.74          3.604          6.681          7.895          38.37         -46.24          76.71          151.7
   0.07039              -53.51          21.13          79.65          54.74          3.602          6.682           7.88          38.37         -46.25          76.71          151.7
   0.08447              -53.51          21.13          79.65          54.74            3.6          6.683          7.863          38.36         -46.27          76.72          151.7
   0.09854              -53.51          21.12          79.65          54.73          3.598          6.684          7.845          38.36         -46.28          76.72          151.7
    0.1126               -53.5          21.12          79.64          54.73          3.596          6.685          7.826          38.35         -46.29          76.73          151.7
    0.1267               -53.5          21.12          79.64          54.73          3.593          6.686          7.805          38.34         -46.31          76.73          151.7
    0.1408              -53.49          21.11          79.64          54.72          3.591          6.687          7.783          38.33         -46.33          76.74          151.7
    0.1549              -53.48          21.11          79.64          54.72          3.588          6.689          7.759          38.32         -46.35          76.75          151.7
    0.1689              -53.48           21.1          79.63          54.71          3.585           6.69          7.733          38.32         -46.37          76.76          151.7
     0.183              -53.47          21.09          79.63          54.71          3.582          6.692          7.706          38.31         -46.39          76.76          151.7
    0.1971              -53.46          21.09          79.63           54.7          3.579          6.694          7.676          38.29         -46.41          76.77          151.7
    0.2112              -53.46          21.08          79.62           54.7          3.575          6.696          7.643          38.28         -46.43          76.78          151.7
    0.2252              -53.45          21.07          79.62          54.69          3.571          6.698          7.608          38.27         -46.46          76.79          151.6
    0.2393              -53.44          21.06          79.62          54.69          3.566            6.7          7.569          38.26         -46.49           76.8          151.6
    0.2534              -53.43          21.05          79.61          54.68          3.561          6.703          7.527          38.24         -46.52          76.82          151.6
    0.2675              -53.41          21.04          79.61          54.67          3.556          6.706          7.481          38.22         -46.56          76.83          151.6
    0.2816               -53.4          21.03           79.6          54.67           3.55          6.709           7.43           38.2          -46.6          76.85          151.6
    0.2956              -53.39          21.02          79.59          54.66          3.544          6.712          7.374          38.18         -46.64          76.86          151.6
    0.3097              -53.37          21.01          79.59          54.65          3.537          6.716          7.313          38.16         -46.69          76.88          151.6
    0.3238              -53.36          20.99          79.58          54.63          3.529           6.72          7.245          38.14         -46.74           76.9          151.5
    0.3379              -53.34          20.97          79.57          54.62           3.52          6.725          7.169          38.11          -46.8          76.92          151.5
    0.3519              -53.32          20.96          79.56          54.61          3.511           6.73          7.084          38.08         -46.86          76.95          151.5
     0.366              -53.29          20.93          79.55          54.59            3.5          6.736           6.99          38.04         -46.94          76.98          151.4
    0.3801              -53.27          20.91          79.54          54.58          3.487          6.742          6.883          38.01         -47.02          77.01          151.4
    0.3942              -53.24          20.88          79.52          54.56          3.473          6.749          6.763          37.96         -47.11          77.04          151.4
    0.4082               -53.2          20.85          79.51          54.53          3.458          6.758          6.626          37.91         -47.21          77.08          151.3
    0.4223              -53.16          20.82          79.49          54.51           3.44          6.767           6.47          37.86         -47.33          77.13          151.3
    0.4364              -53.12          20.78          79.47          54.48          3.419          6.778          6.291          37.79         -47.47          77.18          151.2
